<svg width="140" height="26" viewBox="0 0 140 26" fill="none" xmlns="http://www.w3.org/2000/svg">
<rect width="140" height="26" fill="white"/>
<rect width="140" height="26" fill="#1E232E"/>
<path d="M40.9658 4C42.2183 4 43.3539 4.28378 44.3726 4.85135C45.408 5.4027 46.2179 6.18919 46.8024 7.21081C47.3869 8.21622 47.6792 9.39189 47.6792 10.7378C47.6792 12.0838 47.3869 13.2676 46.8024 14.2892C46.2179 15.2946 45.408 16.0811 44.3726 16.6486C43.3539 17.2 42.2183 17.4757 40.9658 17.4757C39.2457 17.4757 37.8931 16.9486 36.9078 15.8946V22H33V4.19459H36.7324V5.7027C37.701 4.56757 39.1121 4 40.9658 4ZM40.2895 14.3622C41.2915 14.3622 42.1098 14.0378 42.7444 13.3892C43.3957 12.7243 43.7213 11.8405 43.7213 10.7378C43.7213 9.63513 43.3957 8.75946 42.7444 8.11081C42.1098 7.44595 41.2915 7.11351 40.2895 7.11351C39.2875 7.11351 38.4609 7.44595 37.8096 8.11081C37.175 8.75946 36.8577 9.63513 36.8577 10.7378C36.8577 11.8405 37.175 12.7243 37.8096 13.3892C38.4609 14.0378 39.2875 14.3622 40.2895 14.3622Z" fill="white"/>
<path d="M55.5108 4C57.5982 4 59.2014 4.48649 60.3203 5.45946C61.4392 6.41622 61.9986 7.86757 61.9986 9.81351V17.2811H58.3414V15.6514C57.6066 16.8676 56.2372 17.4757 54.2332 17.4757C53.1978 17.4757 52.296 17.3054 51.5278 16.9649C50.7763 16.6243 50.2002 16.1541 49.7994 15.5541C49.3986 14.9541 49.1982 14.273 49.1982 13.5108C49.1982 12.2946 49.6658 11.3378 50.601 10.6405C51.5529 9.94324 53.0141 9.59459 54.9847 9.59459H58.0909C58.0909 8.76757 57.832 8.13513 57.3143 7.6973C56.7966 7.24324 56.0201 7.01622 54.9847 7.01622C54.2666 7.01622 53.5569 7.12973 52.8555 7.35676C52.1708 7.56757 51.5863 7.85946 51.102 8.23243L49.6992 5.58108C50.434 5.07838 51.3107 4.68919 52.3294 4.41351C53.3648 4.13784 54.4253 4 55.5108 4ZM55.2102 14.9216C55.8782 14.9216 56.471 14.7757 56.9887 14.4838C57.5064 14.1757 57.8738 13.7297 58.0909 13.1459V11.8081H55.4106C53.8074 11.8081 53.0058 12.3189 53.0058 13.3405C53.0058 13.827 53.1978 14.2162 53.5819 14.5081C53.9827 14.7838 54.5255 14.9216 55.2102 14.9216Z" fill="white"/>
<path d="M73.5012 4C74.7537 4 75.8893 4.28378 76.908 4.85135C77.9434 5.4027 78.7533 6.18919 79.3378 7.21081C79.9223 8.21622 80.2145 9.39189 80.2145 10.7378C80.2145 12.0838 79.9223 13.2676 79.3378 14.2892C78.7533 15.2946 77.9434 16.0811 76.908 16.6486C75.8893 17.2 74.7537 17.4757 73.5012 17.4757C71.7811 17.4757 70.4284 16.9486 69.4431 15.8946V22H65.5354V4.19459H69.2678V5.7027C70.2364 4.56757 71.6475 4 73.5012 4ZM72.8249 14.3622C73.8268 14.3622 74.6451 14.0378 75.2797 13.3892C75.931 12.7243 76.2567 11.8405 76.2567 10.7378C76.2567 9.63513 75.931 8.75946 75.2797 8.11081C74.6451 7.44595 73.8268 7.11351 72.8249 7.11351C71.8229 7.11351 70.9962 7.44595 70.3449 8.11081C69.7103 8.75946 69.393 9.63513 69.393 10.7378C69.393 11.8405 69.7103 12.7243 70.3449 13.3892C70.9962 14.0378 71.8229 14.3622 72.8249 14.3622Z" fill="white"/>
<path d="M96.0317 10.7865C96.0317 10.8351 96.0067 11.1757 95.9566 11.8081H85.7613C85.945 12.6189 86.3792 13.2595 87.0639 13.7297C87.7486 14.2 88.6003 14.4351 89.619 14.4351C90.3204 14.4351 90.9383 14.3378 91.4727 14.1432C92.0237 13.9324 92.5331 13.6081 93.0007 13.1703L95.0798 15.3595C93.8106 16.7703 91.957 17.4757 89.5188 17.4757C87.9991 17.4757 86.6547 17.1919 85.4858 16.6243C84.3168 16.0405 83.415 15.2378 82.7804 14.2162C82.1458 13.1946 81.8285 12.0351 81.8285 10.7378C81.8285 9.45676 82.1374 8.3054 82.7553 7.28378C83.3899 6.24595 84.25 5.44324 85.3355 4.87567C86.4376 4.29189 87.6651 4 89.0178 4C90.3371 4 91.5311 4.27568 92.5999 4.82703C93.6687 5.37838 94.5037 6.17297 95.1049 7.21081C95.7228 8.23243 96.0317 9.42432 96.0317 10.7865ZM89.0428 6.87027C88.1577 6.87027 87.4146 7.11351 86.8134 7.6C86.2122 8.08649 85.8448 8.75135 85.7112 9.59459H92.3494C92.2158 8.76757 91.8484 8.11081 91.2472 7.62432C90.646 7.12162 89.9112 6.87027 89.0428 6.87027Z" fill="white"/>
<path d="M102.366 5.92162C102.833 5.28919 103.46 4.81081 104.245 4.48649C105.046 4.16216 105.965 4 107 4V7.5027C106.566 7.47027 106.274 7.45405 106.123 7.45405C105.004 7.45405 104.128 7.76216 103.493 8.37838C102.858 8.97838 102.541 9.88649 102.541 11.1027V17.2811H98.6334V4.19459H102.366V5.92162Z" fill="white"/>
</svg>
