<svg width="36" height="36" viewBox="0 0 36 36" fill="none" xmlns="http://www.w3.org/2000/svg">
<rect width="36" height="36" fill="white"/>
<rect width="36" height="36" fill="#1E232E"/>
<path d="M19.3106 6C20.9317 6 22.4016 6.37838 23.7201 7.13513C25.0603 7.87027 26.1086 8.91892 26.8652 10.2811C27.6217 11.6216 28 13.1892 28 14.9838C28 16.7784 27.6217 18.3568 26.8652 19.7189C26.1086 21.0595 25.0603 22.1081 23.7201 22.8649C22.4016 23.6 20.9317 23.9676 19.3106 23.9676C17.0842 23.9676 15.3333 23.2649 14.058 21.8595V30H9V6.25946H13.8311V8.27027C15.0848 6.75676 16.9113 6 19.3106 6ZM18.4352 19.8162C19.7321 19.8162 20.7912 19.3838 21.6126 18.5189C22.4556 17.6324 22.8771 16.4541 22.8771 14.9838C22.8771 13.5135 22.4556 12.3459 21.6126 11.4811C20.7912 10.5946 19.7321 10.1514 18.4352 10.1514C17.1382 10.1514 16.0683 10.5946 15.2253 11.4811C14.4039 12.3459 13.9932 13.5135 13.9932 14.9838C13.9932 16.4541 14.4039 17.6324 15.2253 18.5189C16.0683 19.3838 17.1382 19.8162 18.4352 19.8162Z" fill="white"/>
</svg>
