<svg width="36" height="36" viewBox="0 0 36 36" fill="none" xmlns="http://www.w3.org/2000/svg">
<rect width="36" height="36" fill="white"/>
<rect width="36" height="36" fill="#FF066B"/>
<path d="M18.3247 29C16.7085 29 15.1409 28.7772 13.622 28.3315C12.1226 27.8656 10.9152 27.268 10 26.5387L11.6065 22.8315C12.4828 23.5 13.5246 24.0368 14.732 24.442C15.9393 24.8471 17.1466 25.0497 18.354 25.0497C19.6976 25.0497 20.6907 24.8471 21.3333 24.442C21.9759 24.0166 22.2973 23.4595 22.2973 22.7707C22.2973 22.2643 22.1025 21.849 21.7131 21.5249C21.3431 21.1805 20.8562 20.907 20.2526 20.7044C19.6684 20.5018 18.87 20.279 17.8574 20.0359C16.2995 19.651 15.0241 19.2661 14.0309 18.8812C13.0378 18.4963 12.181 17.8785 11.4605 17.0276C10.7595 16.1768 10.4089 15.0424 10.4089 13.6243C10.4089 12.3886 10.7302 11.2744 11.3729 10.2818C12.0155 9.26888 12.9794 8.46869 14.2646 7.88122C15.5693 7.29374 17.1564 7 19.0258 7C20.3305 7 21.606 7.16206 22.8522 7.48619C24.0985 7.81031 25.189 8.27624 26.1237 8.88398L24.6632 12.6215C22.7743 11.5074 20.8855 10.9503 18.9966 10.9503C17.6724 10.9503 16.689 11.1731 16.0464 11.6188C15.4233 12.0645 15.1117 12.6519 15.1117 13.3812C15.1117 14.1105 15.4719 14.6575 16.1924 15.0221C16.9324 15.3665 18.0521 15.7109 19.5515 16.0552C21.1094 16.4401 22.3849 16.825 23.378 17.2099C24.3711 17.5948 25.2182 18.2026 25.9192 19.0332C26.6397 19.8637 27 20.988 27 22.4061C27 23.6215 26.669 24.7357 26.0069 25.7486C25.3643 26.7413 24.3906 27.5313 23.0859 28.1188C21.7812 28.7063 20.1942 29 18.3247 29Z" fill="white"/>
</svg>
